
<mxfile host="app.diagrams.net">
  <diagram name="Colorectal Cancer Multimodal Model">
    <mxGraphModel>
      <root>
        <mxCell id="0" />
        <mxCell id="1" parent="0" />
        <mxCell id="2" value="结直肠恶性肿瘤诊疗辅助多模态大模型研究方案" style="text;html=1;strokeColor=none;fillColor=none;fontSize=24;fontStyle=1;" vertex="1" parent="1">
          <mxGeometry x="200" y="20" width="400" height="30" as="geometry" />
        </mxCell>
        <mxCell id="3" value="领域数据集构建" style="rounded=1;fillColor=#d5e8d4;strokeColor=#82b366;" vertex="1" parent="1">
          <mxGeometry x="150" y="100" width="160" height="60" as="geometry" />
        </mxCell>
        <mxCell id="4" value="大模型训练" style="rounded=1;fillColor=#d5e8d4;strokeColor=#82b366;" vertex="1" parent="1">
          <mxGeometry x="350" y="100" width="160" height="60" as="geometry" />
        </mxCell>
        <mxCell id="5" value="模型性能评估" style="rounded=1;fillColor=#d5e8d4;strokeColor=#82b366;" vertex="1" parent="1">
          <mxGeometry x="150" y="200" width="160" height="60" as="geometry" />
        </mxCell>
        <mxCell id="6" value="小型化部署" style="rounded=1;fillColor=#d5e8d4;strokeColor=#82b366;" vertex="1" parent="1">
          <mxGeometry x="350" y="200" width="160" height="60" as="geometry" />
        </mxCell>
        <mxCell id="7" style="edgeStyle=orthogonalEdgeStyle;strokeColor=#82b366;" edge="1" parent="1" source="3" target="4">
          <mxGeometry relative="1" as="geometry" />
        </mxCell>
        <mxCell id="8" style="edgeStyle=orthogonalEdgeStyle;strokeColor=#82b366;" edge="1" parent="1" source="4" target="5">
          <mxGeometry relative="1" as="geometry" />
        </mxCell>
        <mxCell id="9" style="edgeStyle=orthogonalEdgeStyle;strokeColor=#82b366;" edge="1" parent="1" source="5" target="6">
          <mxGeometry relative="1" as="geometry" />
        </mxCell>
      </root>
    </mxGraphModel>
  </diagram>
</mxfile>
